<?xml version="1.0" encoding="UTF-8" standalone="no"?>
<!DOCTYPE svg PUBLIC "-//W3C//DTD SVG 1.1//EN"
 "http://www.w3.org/Graphics/SVG/1.1/DTD/svg11.dtd">
<!-- Generated by graphviz version 2.44.1 (20200629.0846)
 -->
<!-- Pages: 1 -->
<svg width="614pt" height="332pt"
 viewBox="0.00 0.00 614.42 332.00" xmlns="http://www.w3.org/2000/svg" xmlns:xlink="http://www.w3.org/1999/xlink">
<g id="graph0" class="graph" transform="scale(1 1) rotate(0) translate(4 328)">
<polygon fill="white" stroke="transparent" points="-4,4 -4,-328 610.42,-328 610.42,4 -4,4"/>
<!-- [root] azuread_group_member.Import_AD_Group1_tony_mccallion -->
<g id="node1" class="node">
<title>[root] azuread_group_member.Import_AD_Group1_tony_mccallion</title>
<polygon fill="none" stroke="black" points="510.13,-180 154.13,-180 154.13,-144 510.13,-144 510.13,-180"/>
<text text-anchor="middle" x="332.13" y="-158.3" font-family="Times,serif" font-size="14.00">azuread_group_member.Import_AD_Group1_tony_mccallion</text>
</g>
<!-- [root] data.azuread_group.Import_AD_Group1 -->
<g id="node2" class="node">
<title>[root] data.azuread_group.Import_AD_Group1</title>
<polygon fill="none" stroke="black" points="332.63,-108 93.63,-108 93.63,-72 332.63,-72 332.63,-108"/>
<text text-anchor="middle" x="213.13" y="-86.3" font-family="Times,serif" font-size="14.00">data.azuread_group.Import_AD_Group1</text>
</g>
<!-- [root] azuread_group_member.Import_AD_Group1_tony_mccallion&#45;&gt;[root] data.azuread_group.Import_AD_Group1 -->
<g id="edge1" class="edge">
<title>[root] azuread_group_member.Import_AD_Group1_tony_mccallion&#45;&gt;[root] data.azuread_group.Import_AD_Group1</title>
<path fill="none" stroke="black" d="M303.02,-143.88C287.46,-134.72 268.12,-123.34 251.36,-113.48"/>
<polygon fill="black" stroke="black" points="252.75,-110.24 242.36,-108.19 249.2,-116.28 252.75,-110.24"/>
</g>
<!-- [root] data.azuread_user.tony_mccallion -->
<g id="node3" class="node">
<title>[root] data.azuread_user.tony_mccallion</title>
<polygon fill="none" stroke="black" points="553.13,-108 351.13,-108 351.13,-72 553.13,-72 553.13,-108"/>
<text text-anchor="middle" x="452.13" y="-86.3" font-family="Times,serif" font-size="14.00">data.azuread_user.tony_mccallion</text>
</g>
<!-- [root] azuread_group_member.Import_AD_Group1_tony_mccallion&#45;&gt;[root] data.azuread_user.tony_mccallion -->
<g id="edge2" class="edge">
<title>[root] azuread_group_member.Import_AD_Group1_tony_mccallion&#45;&gt;[root] data.azuread_user.tony_mccallion</title>
<path fill="none" stroke="black" d="M361.49,-143.88C377.18,-134.72 396.69,-123.34 413.59,-113.48"/>
<polygon fill="black" stroke="black" points="415.79,-116.25 422.67,-108.19 412.26,-110.21 415.79,-116.25"/>
</g>
<!-- [root] provider.azuread -->
<g id="node4" class="node">
<title>[root] provider.azuread</title>
<polygon fill="none" stroke="black" points="332.13,-36 233.93,-18 332.13,0 430.33,-18 332.13,-36"/>
<text text-anchor="middle" x="332.13" y="-14.3" font-family="Times,serif" font-size="14.00">provider.azuread</text>
</g>
<!-- [root] data.azuread_group.Import_AD_Group1&#45;&gt;[root] provider.azuread -->
<g id="edge3" class="edge">
<title>[root] data.azuread_group.Import_AD_Group1&#45;&gt;[root] provider.azuread</title>
<path fill="none" stroke="black" d="M242.25,-71.88C260.06,-61.4 282.84,-48 301.01,-37.31"/>
<polygon fill="black" stroke="black" points="303.19,-40.08 310.04,-32 299.65,-34.05 303.19,-40.08"/>
</g>
<!-- [root] data.azuread_user.tony_mccallion&#45;&gt;[root] provider.azuread -->
<g id="edge4" class="edge">
<title>[root] data.azuread_user.tony_mccallion&#45;&gt;[root] provider.azuread</title>
<path fill="none" stroke="black" d="M422.78,-71.88C404.73,-61.35 381.63,-47.88 363.27,-37.16"/>
<polygon fill="black" stroke="black" points="364.82,-34.01 354.42,-32 361.29,-40.06 364.82,-34.01"/>
</g>
<!-- [root] meta.count&#45;boundary (EachMode fixup) -->
<g id="node5" class="node">
<title>[root] meta.count&#45;boundary (EachMode fixup)</title>
<ellipse fill="none" stroke="black" cx="176.13" cy="-234" rx="176.27" ry="18"/>
<text text-anchor="middle" x="176.13" y="-230.3" font-family="Times,serif" font-size="14.00">[root] meta.count&#45;boundary (EachMode fixup)</text>
</g>
<!-- [root] meta.count&#45;boundary (EachMode fixup)&#45;&gt;[root] azuread_group_member.Import_AD_Group1_tony_mccallion -->
<g id="edge5" class="edge">
<title>[root] meta.count&#45;boundary (EachMode fixup)&#45;&gt;[root] azuread_group_member.Import_AD_Group1_tony_mccallion</title>
<path fill="none" stroke="black" d="M213.5,-216.23C234.89,-206.63 261.94,-194.5 284.8,-184.24"/>
<polygon fill="black" stroke="black" points="286.3,-187.4 293.99,-180.12 283.43,-181.02 286.3,-187.4"/>
</g>
<!-- [root] provider.azuread (close) -->
<g id="node6" class="node">
<title>[root] provider.azuread (close)</title>
<ellipse fill="none" stroke="black" cx="488.13" cy="-234" rx="118.08" ry="18"/>
<text text-anchor="middle" x="488.13" y="-230.3" font-family="Times,serif" font-size="14.00">[root] provider.azuread (close)</text>
</g>
<!-- [root] provider.azuread (close)&#45;&gt;[root] azuread_group_member.Import_AD_Group1_tony_mccallion -->
<g id="edge6" class="edge">
<title>[root] provider.azuread (close)&#45;&gt;[root] azuread_group_member.Import_AD_Group1_tony_mccallion</title>
<path fill="none" stroke="black" d="M451.95,-216.76C430.36,-207.07 402.69,-194.66 379.38,-184.2"/>
<polygon fill="black" stroke="black" points="380.58,-180.9 370.02,-180 377.71,-187.29 380.58,-180.9"/>
</g>
<!-- [root] root -->
<g id="node7" class="node">
<title>[root] root</title>
<ellipse fill="none" stroke="black" cx="332.13" cy="-306" rx="47.39" ry="18"/>
<text text-anchor="middle" x="332.13" y="-302.3" font-family="Times,serif" font-size="14.00">[root] root</text>
</g>
<!-- [root] root&#45;&gt;[root] meta.count&#45;boundary (EachMode fixup) -->
<g id="edge7" class="edge">
<title>[root] root&#45;&gt;[root] meta.count&#45;boundary (EachMode fixup)</title>
<path fill="none" stroke="black" d="M302.79,-291.83C280.23,-281.71 248.63,-267.53 222.64,-255.87"/>
<polygon fill="black" stroke="black" points="223.9,-252.6 213.34,-251.7 221.03,-258.98 223.9,-252.6"/>
</g>
<!-- [root] root&#45;&gt;[root] provider.azuread (close) -->
<g id="edge8" class="edge">
<title>[root] root&#45;&gt;[root] provider.azuread (close)</title>
<path fill="none" stroke="black" d="M361.48,-291.83C384.35,-281.57 416.52,-267.13 442.72,-255.38"/>
<polygon fill="black" stroke="black" points="444.38,-258.47 452.07,-251.18 441.51,-252.08 444.38,-258.47"/>
</g>
</g>
</svg>
